<svg xmlns="http://www.w3.org/2000/svg" width="9.742" height="19.286" viewBox="0 0 9.742 19.286">
  <g id="XMLID_834_" transform="translate(0 0)">
    <path id="XMLID_835_" d="M77.014,10.272h2.114v8.7a.311.311,0,0,0,.311.311h3.584a.311.311,0,0,0,.311-.311V10.313h2.43a.311.311,0,0,0,.309-.276l.369-3.2a.311.311,0,0,0-.309-.347h-2.8V4.478c0-.605.326-.912.969-.912h1.83a.311.311,0,0,0,.311-.311V.313A.311.311,0,0,0,86.134,0H83.612c-.018,0-.057,0-.116,0a4.834,4.834,0,0,0-3.161,1.191,3.314,3.314,0,0,0-1.1,2.946V6.486H77.014A.311.311,0,0,0,76.7,6.8V9.96A.311.311,0,0,0,77.014,10.272Z" transform="translate(-76.703 0)" fill="#939393"/>
  </g>
</svg>
