<svg xmlns="http://www.w3.org/2000/svg" xmlns:xlink="http://www.w3.org/1999/xlink" width="18.974" height="18.974" viewBox="0 0 18.974 18.974">
  <defs>
    <clipPath id="clip-path">
      <rect width="18.974" height="18.974" fill="none"/>
    </clipPath>
  </defs>
  <g id="Repeat_Grid_3" data-name="Repeat Grid 3" clip-path="url(#clip-path)">
    <g transform="translate(-980 -36)">
      <path id="Path_702" data-name="Path 702" d="M27.488,18c-2.577,0-2.9.011-3.912.057a6.962,6.962,0,0,0-2.3.441A4.853,4.853,0,0,0,18.5,21.272a6.93,6.93,0,0,0-.441,2.3C18.012,24.587,18,24.911,18,27.487s.011,2.9.057,3.911a6.972,6.972,0,0,0,.441,2.3,4.855,4.855,0,0,0,2.774,2.776,6.968,6.968,0,0,0,2.3.441c1.012.046,1.335.057,3.912.057s2.9-.011,3.911-.057a6.972,6.972,0,0,0,2.3-.441A4.861,4.861,0,0,0,36.476,33.7a7.032,7.032,0,0,0,.441-2.3c.045-1.012.057-1.335.057-3.911s-.012-2.9-.057-3.912a7.029,7.029,0,0,0-.441-2.3A4.854,4.854,0,0,0,33.7,18.5a6.984,6.984,0,0,0-2.3-.441C30.385,18.011,30.062,18,27.485,18Zm-.851,1.71h.851c2.533,0,2.833.009,3.834.055a5.253,5.253,0,0,1,1.761.327,3.144,3.144,0,0,1,1.8,1.8,5.242,5.242,0,0,1,.327,1.761c.045,1,.055,1.3.055,3.832s-.01,2.832-.055,3.832a5.247,5.247,0,0,1-.327,1.761,3.146,3.146,0,0,1-1.8,1.8,5.233,5.233,0,0,1-1.761.327c-1,.045-1.3.055-3.834.055s-2.834-.01-3.834-.055a5.263,5.263,0,0,1-1.762-.327,3.143,3.143,0,0,1-1.8-1.8,5.242,5.242,0,0,1-.327-1.761c-.045-1-.055-1.3-.055-3.834s.009-2.832.055-3.832a5.253,5.253,0,0,1,.327-1.761,3.144,3.144,0,0,1,1.8-1.8,5.241,5.241,0,0,1,1.762-.327c.875-.04,1.214-.051,2.983-.053Zm5.915,1.575a1.138,1.138,0,1,0,1.138,1.138,1.138,1.138,0,0,0-1.138-1.138Zm-5.064,1.33a4.872,4.872,0,1,0,4.871,4.872,4.872,4.872,0,0,0-4.871-4.872Zm0,1.71a3.162,3.162,0,1,1-3.162,3.162A3.162,3.162,0,0,1,27.488,24.325Z" transform="translate(962 18)" fill="#939393"/>
    </g>
  </g>
</svg>
