<svg id="Group_11" data-name="Group 11" xmlns="http://www.w3.org/2000/svg" xmlns:xlink="http://www.w3.org/1999/xlink" width="122" height="103.092" viewBox="0 0 122 103.092">
  <defs>
    <clipPath id="clip-path">
      <path id="SVGID" d="M140.212,407.991h3.282V396.959h-3.282ZM163.9,396.959v7.666a2.161,2.161,0,0,1-1.786,1.289c-.686,0-1.059-.333-1.059-1.454v-7.5h-3.282v7.915c0,2.14,1.018,3.47,3.074,3.47a3.771,3.771,0,0,0,3.345-1.745l.145,1.392h2.847V396.959Zm27.655,11.032h3.282V396.959h-3.282Zm19.966-11.032-2.161,8.933-1.973-8.933h-3.49l3.365,11.032h1.122c-.6,1.412-1.391,2.036-3.552,2.306l.353,2.306c3.47-.187,5.339-1.807,6.212-4.591l3.511-11.052Zm-101.473,1.829c1.308,0,1.766,1.039,1.787,2.534v.146h-3.677c.146-1.974.79-2.68,1.89-2.68m-5.235,3.739c0,3.449,1.87,5.817,5.547,5.817a6.784,6.784,0,0,0,4.3-1.538l-1.35-1.828a4.473,4.473,0,0,1-2.638.976c-1.351,0-2.285-.54-2.514-2.514h6.835a10.946,10.946,0,0,0,.062-1.184c0-3.573-1.932-5.65-5.09-5.65-3.344,0-5.152,2.618-5.152,5.92m15.208-4.238-.249-1.33H116.92v11.032H120.2v-7.542c.561-.913,1.184-1.433,1.911-1.433.644,0,1.039.312,1.039,1.474v7.5h3.283V399.93c0-2.1-1.143-3.324-3.054-3.324a4.161,4.161,0,0,0-3.365,1.682m11.344,6.315c0-1.1.727-1.621,2.223-1.621h.81v1.953a1.966,1.966,0,0,1-1.745,1.06,1.232,1.232,0,0,1-1.288-1.392m-2.472-7.188.748,2.161a9.936,9.936,0,0,1,2.887-.582c1.351,0,1.87.395,1.87,1.7v.478h-1.122c-3.344,0-5.173,1.309-5.173,3.719a3.334,3.334,0,0,0,3.594,3.449,3.712,3.712,0,0,0,3.324-1.662,2.759,2.759,0,0,0,2.659,1.6l.685-2.14c-.519-.187-.748-.5-.748-1.351v-4.279c0-2.555-1.372-3.905-4.571-3.905a12.474,12.474,0,0,0-4.155.81m43.922.873-.25-1.33h-2.846v11.032H173v-7.542c.561-.913,1.184-1.433,1.911-1.433.644,0,1.039.312,1.039,1.474v7.5h3.283V399.93c0-2.1-1.143-3.324-3.054-3.324a4.16,4.16,0,0,0-3.365,1.682m8.207,4.28c0,3.49,2.077,5.776,5.464,5.776a5.738,5.738,0,0,0,3.719-1.309L188.766,405a3.659,3.659,0,0,1-2.119.748c-1.309,0-2.181-.748-2.181-3.2,0-2.472.81-3.428,2.223-3.428a3.312,3.312,0,0,1,2.1.79l1.413-1.953a5.548,5.548,0,0,0-3.781-1.35c-3.3,0-5.4,2.451-5.4,5.962m16.684-8v2.389h-1.558v2.285H197.7v5.111c0,2.6,1.184,3.968,3.615,3.989a5.46,5.46,0,0,0,2.991-.873l-1.1-2.078a2.33,2.33,0,0,1-1.184.354c-.685,0-1.039-.375-1.039-1.434v-5.069h2.181l.353-2.285h-2.535V394.2ZM96.31,395.982h1.226c1.682,0,2.493.6,2.493,2,0,1.516-.789,2.16-2.285,2.16H96.31ZM92.9,393.594v14.4H96.31v-5.505h1.33l2.95,5.505h3.843l-3.656-6.129c1.87-.852,2.763-1.995,2.763-3.885,0-2.992-2.015-4.384-5.921-4.384Zm52.648,3.8c0,2.14,1.185,3.469,4.4,4.466,2.1.644,2.639,1.121,2.639,2.181,0,1.1-.872,1.766-2.285,1.766a5.424,5.424,0,0,1-3.636-1.413l-1.724,1.89a7.633,7.633,0,0,0,5.464,2.057c3.594,0,5.713-1.87,5.713-4.55,0-2.659-1.558-3.781-4.28-4.653-2.244-.706-2.784-1.081-2.784-1.995s.748-1.413,1.932-1.413a4.813,4.813,0,0,1,3.158,1.205l1.579-1.849a6.727,6.727,0,0,0-4.985-1.849c-2.992,0-5.194,1.621-5.194,4.156m-5.651-4.384a1.944,1.944,0,1,0,1.932-1.87,1.84,1.84,0,0,0-1.932,1.87m51.339,0a1.944,1.944,0,1,0,1.932-1.87,1.84,1.84,0,0,0-1.932,1.87" transform="translate(-92.903 -391.142)" fill="#fdcd00"/>
    </clipPath>
  </defs>
  <path id="Path_1" data-name="Path 1" d="M179.622,284.25h7.371v7.371h-7.371Zm40.6,3.308V268.141h-5.818v14.147l-23.737-21.5L151.849,294.98h7.883l30.494-25.8L219,294.98h9.424Zm-28.121,4.063h7.371V284.25h-7.371Z" transform="translate(-134.487 -217.551)" fill="#6a66b6" stroke="#fff" stroke-miterlimit="10" stroke-width="1.689"/>
  <g id="Group_1" data-name="Group 1" transform="translate(6.531)">
    <path id="SVGID-2" data-name="SVGID" d="M142.1,167.074a27.454,27.454,0,0,0,.922,7.061l21.711-19.124,22.646,20.515V163.341h8.107v12.71a27.448,27.448,0,1,0-53.387-8.977m29.254-36.116q-.9-.045-1.806-.046t-1.806.046L157.428,114l-1.944,19.744a36.132,36.132,0,0,0-3.269,1.577L135.573,124.55l6.816,18.628q-1.193,1.351-2.248,2.817l-19.7-2.517,14.239,13.841q-.485,1.728-.8,3.523l-18.8,6.294,22.989,6.33a32.107,32.107,0,1,1,62.96,0l22.989-6.33-18.8-6.294a36.072,36.072,0,0,0-.8-3.524l14.239-13.839-19.7,2.516q-1.055-1.465-2.248-2.818l6.816-18.626-16.643,10.771a36.063,36.063,0,0,0-3.269-1.578L181.662,114Z" transform="translate(-115.076 -114)" fill="#fdcd00"/>
  </g>
  <g id="Group_3" data-name="Group 3" transform="translate(0 81.632)">
    <path id="SVGID-3" data-name="SVGID" d="M140.212,407.991h3.282V396.959h-3.282ZM163.9,396.959v7.666a2.161,2.161,0,0,1-1.786,1.289c-.686,0-1.059-.333-1.059-1.454v-7.5h-3.282v7.915c0,2.14,1.018,3.47,3.074,3.47a3.771,3.771,0,0,0,3.345-1.745l.145,1.392h2.847V396.959Zm27.655,11.032h3.282V396.959h-3.282Zm19.966-11.032-2.161,8.933-1.973-8.933h-3.49l3.365,11.032h1.122c-.6,1.412-1.391,2.036-3.552,2.306l.353,2.306c3.47-.187,5.339-1.807,6.212-4.591l3.511-11.052Zm-101.473,1.829c1.308,0,1.766,1.039,1.787,2.534v.146h-3.677c.146-1.974.79-2.68,1.89-2.68m-5.235,3.739c0,3.449,1.87,5.817,5.547,5.817a6.784,6.784,0,0,0,4.3-1.538l-1.35-1.828a4.473,4.473,0,0,1-2.638.976c-1.351,0-2.285-.54-2.514-2.514h6.835a10.946,10.946,0,0,0,.062-1.184c0-3.573-1.932-5.65-5.09-5.65-3.344,0-5.152,2.618-5.152,5.92m15.208-4.238-.249-1.33H116.92v11.032H120.2v-7.542c.561-.913,1.184-1.433,1.911-1.433.644,0,1.039.312,1.039,1.474v7.5h3.283V399.93c0-2.1-1.143-3.324-3.054-3.324a4.161,4.161,0,0,0-3.365,1.682m11.344,6.315c0-1.1.727-1.621,2.223-1.621h.81v1.953a1.966,1.966,0,0,1-1.745,1.06,1.232,1.232,0,0,1-1.288-1.392m-2.472-7.188.748,2.161a9.936,9.936,0,0,1,2.887-.582c1.351,0,1.87.395,1.87,1.7v.478h-1.122c-3.344,0-5.173,1.309-5.173,3.719a3.334,3.334,0,0,0,3.594,3.449,3.712,3.712,0,0,0,3.324-1.662,2.759,2.759,0,0,0,2.659,1.6l.685-2.14c-.519-.187-.748-.5-.748-1.351v-4.279c0-2.555-1.372-3.905-4.571-3.905a12.474,12.474,0,0,0-4.155.81m43.922.873-.25-1.33h-2.846v11.032H173v-7.542c.561-.913,1.184-1.433,1.911-1.433.644,0,1.039.312,1.039,1.474v7.5h3.283V399.93c0-2.1-1.143-3.324-3.054-3.324a4.16,4.16,0,0,0-3.365,1.682m8.207,4.28c0,3.49,2.077,5.776,5.464,5.776a5.738,5.738,0,0,0,3.719-1.309L188.766,405a3.659,3.659,0,0,1-2.119.748c-1.309,0-2.181-.748-2.181-3.2,0-2.472.81-3.428,2.223-3.428a3.312,3.312,0,0,1,2.1.79l1.413-1.953a5.548,5.548,0,0,0-3.781-1.35c-3.3,0-5.4,2.451-5.4,5.962m16.684-8v2.389h-1.558v2.285H197.7v5.111c0,2.6,1.184,3.968,3.615,3.989a5.46,5.46,0,0,0,2.991-.873l-1.1-2.078a2.33,2.33,0,0,1-1.184.354c-.685,0-1.039-.375-1.039-1.434v-5.069h2.181l.353-2.285h-2.535V394.2ZM96.31,395.982h1.226c1.682,0,2.493.6,2.493,2,0,1.516-.789,2.16-2.285,2.16H96.31ZM92.9,393.594v14.4H96.31v-5.505h1.33l2.95,5.505h3.843l-3.656-6.129c1.87-.852,2.763-1.995,2.763-3.885,0-2.992-2.015-4.384-5.921-4.384Zm52.648,3.8c0,2.14,1.185,3.469,4.4,4.466,2.1.644,2.639,1.121,2.639,2.181,0,1.1-.872,1.766-2.285,1.766a5.424,5.424,0,0,1-3.636-1.413l-1.724,1.89a7.633,7.633,0,0,0,5.464,2.057c3.594,0,5.713-1.87,5.713-4.55,0-2.659-1.558-3.781-4.28-4.653-2.244-.706-2.784-1.081-2.784-1.995s.748-1.413,1.932-1.413a4.813,4.813,0,0,1,3.158,1.205l1.579-1.849a6.727,6.727,0,0,0-4.985-1.849c-2.992,0-5.194,1.621-5.194,4.156m-5.651-4.384a1.944,1.944,0,1,0,1.932-1.87,1.84,1.84,0,0,0-1.932,1.87m51.339,0a1.944,1.944,0,1,0,1.932-1.87,1.84,1.84,0,0,0-1.932,1.87" transform="translate(-92.903 -391.142)" fill="#fdcd00"/>
    <g id="Group_2" data-name="Group 2" clip-path="url(#clip-path)">
      <rect id="Rectangle_2" data-name="Rectangle 2" width="122" height="21.46" transform="translate(0 0)" fill="#fdcd00"/>
    </g>
  </g>
</svg>
