<svg xmlns="http://www.w3.org/2000/svg" width="19.911" height="14.089" viewBox="0 0 19.911 14.089">
  <g id="youtube-svgrepo-com" transform="translate(0)">
    <path id="Path_30" data-name="Path 30" d="M15.775,67.393H4.135A4.135,4.135,0,0,0,0,71.528v5.819a4.135,4.135,0,0,0,4.135,4.135h11.64a4.135,4.135,0,0,0,4.135-4.135V71.528A4.135,4.135,0,0,0,15.775,67.393Zm-2.8,7.328-5.445,2.6a.219.219,0,0,1-.313-.2V71.764a.219.219,0,0,1,.317-.195l5.445,2.759A.219.219,0,0,1,12.979,74.721Z" transform="translate(0 -67.393)" fill="#939393"/>
  </g>
</svg>
